<?xml version="1.0" standalone="no"?><!DOCTYPE svg PUBLIC "-//W3C//DTD SVG 1.1//EN" "http://www.w3.org/Graphics/SVG/1.1/DTD/svg11.dtd"><svg t="1685773385763" class="icon" viewBox="0 0 1024 1024" version="1.1" xmlns="http://www.w3.org/2000/svg" p-id="13950" xmlns:xlink="http://www.w3.org/1999/xlink" width="200" height="200"><path d="M0 512c0 282.8 229.3 512 512.1 512S1024.2 794.8 1024.2 512 794.9 0 512.1 0 0 229.2 0 512z m0 0" fill="#00B7EE" p-id="13951"></path><path d="M226 533.5c0 54.3 29 104.5 76 131.7 47.1 27.2 105 27.2 152.1 0 47.1-27.2 76-77.4 76-131.7 0-84-68.1-152.1-152.1-152.1-83.9 0.1-152 68.1-152 152.1z m0 0M577.6 322.8c0 30.7 16.4 59.1 43 74.5 26.6 15.4 59.4 15.4 86.1 0 26.6-15.4 43-43.8 43-74.5 0-30.7-16.4-59.1-43-74.5-26.6-15.4-59.4-15.4-86.1 0-26.6 15.3-43 43.7-43 74.5z m0 0M576.9 676.8c0 39.5 21.1 76.1 55.3 95.8 34.2 19.8 76.4 19.8 110.7 0 34.2-19.8 55.3-56.3 55.3-95.8s-21.1-76.1-55.3-95.8c-34.2-19.8-76.4-19.8-110.7 0-34.2 19.7-55.3 56.2-55.3 95.8z m0 0" fill="#FFFFFF" p-id="13952"></path></svg>