<?xml version="1.0" standalone="no"?><!DOCTYPE svg PUBLIC "-//W3C//DTD SVG 1.1//EN" "http://www.w3.org/Graphics/SVG/1.1/DTD/svg11.dtd"><svg t="1685628409586" class="icon" viewBox="0 0 1024 1024" version="1.1" xmlns="http://www.w3.org/2000/svg" p-id="17098" xmlns:xlink="http://www.w3.org/1999/xlink" width="200" height="200"><path d="M512 512m-512 0a512 512 0 1 0 1024 0 512 512 0 1 0-1024 0Z" fill="#00AAEE" p-id="17099"></path><path d="M761.856 823.86944c-48.16896-19.2512-110.05952-40.30464-185.71264-62.99648-24.12544-5.24288-33.54624-19.2512-28.38528-42.02496 8.6016-20.97152 25.8048-28.8768 51.6096-23.59296 73.89184 19.2512 137.54368 39.3216 190.8736 60.37504 13.7216 8.72448 17.16224 24.45312 10.32192 47.22688-8.64256 19.2512-21.54496 26.25536-38.7072 21.01248z m-386.90816-357.00736h268.288v-28.8768h-268.288v28.8768z m-33.54624 55.13216c-25.8048 1.76128-37.84704-14.00832-36.08576-47.26784v-49.88928c0-26.2144 14.58176-40.22272 43.8272-41.984h327.59808c20.64384 5.24288 32.64512 18.35008 36.08576 39.36256v55.13216c0 31.5392-14.62272 46.40768-43.8272 44.6464h-327.59808z m-59.31008 173.2608v-99.77856c-1.72032-33.21856 17.16224-50.74944 56.7296-52.51072H692.224c34.36544 1.76128 51.6096 19.29216 51.6096 52.51072v83.968c-1.76128 22.81472-14.66368 35.06176-38.74816 36.78208-24.08448-1.72032-36.08576-13.96736-36.08576-36.74112v-60.37504a17.24416 17.24416 0 0 0-7.7824-7.86432h-296.59136c-5.16096 1.76128-7.74144 4.38272-7.74144 7.86432v76.14464c-1.72032 20.97152-14.62272 32.3584-38.7072 34.11968-24.08448-1.72032-36.08576-13.1072-36.08576-34.11968z m-18.06336 60.37504c89.37472-1.76128 154.74688-35.88096 196.03456-102.4 15.48288-19.2512 33.54624-23.63392 54.14912-13.1072 15.48288 14.00832 16.34304 32.3584 2.58048 55.13216-49.88928 73.48224-128.12288 117.22752-234.7008 131.23584-29.2864 1.72032-47.3088-7.86432-54.19008-28.8768-3.44064-24.53504 8.6016-38.5024 36.12672-41.984z m157.32736-464.65024h49.02912v-57.7536c0-21.01248 12.9024-32.3584 38.66624-34.16064 24.08448 1.80224 36.98688 13.1072 38.7072 34.16064v57.7536h69.632l5.16096-10.52672c3.44064-8.72448 10.32192-21.87264 20.64384-39.36256 15.48288-24.49408 33.54624-32.3584 54.19008-23.63392 18.88256 12.288 24.90368 27.15648 18.0224 44.6464-3.44064 10.48576-6.88128 19.2512-10.32192 26.2144h41.28768c41.28768 0 61.89056 19.29216 61.89056 57.7536 0 24.576-5.12 53.41184-15.44192 86.67136-10.32192 24.49408-27.52512 33.25952-51.6096 26.2144-18.92352-8.72448-24.08448-26.2144-15.48288-52.46976 1.72032-6.9632 4.3008-16.62976 7.7824-28.8768 3.39968-12.24704-0.90112-18.39104-12.94336-18.39104H297.5744c-5.16096 1.76128-7.7824 4.38272-7.7824 7.86432v60.37504c-1.72032 22.77376-13.76256 35.0208-36.0448 36.78208-24.1664-1.76128-36.12672-14.00832-36.12672-36.78208v-73.48224c0-38.5024 17.16224-58.61376 51.56864-60.37504h64.47104c-1.72032 0-4.3008-2.62144-7.74144-7.86432a55.00928 55.00928 0 0 1-10.32192-13.1072c-18.92352-19.2512-20.60288-36.78208-5.12-52.55168 20.60288-13.96736 41.24672-12.20608 61.8496 5.24288 1.72032 3.56352 5.20192 8.8064 10.36288 15.7696 20.64384 28.01664 33.50528 44.6464 38.66624 49.88928z" fill="#FFFFFF" p-id="17100"></path></svg>